<svg width="366" height="277" viewBox="0 0 366 277" fill="none" xmlns="http://www.w3.org/2000/svg">
<g filter="url(#filter0_d_2_8)">
<path d="M277 83L352.066 130.091C355.006 131.936 355.773 135.884 353.735 138.694L293 222.5" stroke="url(#paint0_linear_2_8)" stroke-width="13"/>
<path d="M101 7L16.6954 36.8308C10.8605 38.8955 9.47983 46.5201 14.2203 50.4998L84.5 109.5" stroke="url(#paint1_linear_2_8)" stroke-width="13"/>
<path d="M85.856 83.72C83.024 83.72 80.696 83.528 78.872 83.144C77.048 82.808 75.584 82.304 74.48 81.632C73.424 80.912 72.68 80.024 72.248 78.968C71.864 77.912 71.672 76.664 71.672 75.224C71.672 74.792 71.696 74.192 71.744 73.424C71.792 72.608 71.864 71.48 71.96 70.04C72.056 68.6 72.176 66.752 72.32 64.496C72.512 62.192 72.752 59.312 73.04 55.856C73.376 51.584 73.64 48.2 73.832 45.704C74.024 43.208 74.168 41.288 74.264 39.944C74.36 38.552 74.408 37.592 74.408 37.064C74.456 36.488 74.48 36.008 74.48 35.624C74.48 34.856 74.48 34.232 74.48 33.752C74.528 33.272 74.576 32.912 74.624 32.672C74.72 32.384 74.84 32.192 74.984 32.096C75.176 31.952 75.44 31.88 75.776 31.88C78.608 31.688 81.008 31.544 82.976 31.448C84.992 31.352 86.744 31.304 88.232 31.304C91.88 31.304 95 31.616 97.592 32.24C100.232 32.816 102.368 33.656 104 34.76C105.632 35.864 106.832 37.232 107.6 38.864C108.368 40.496 108.752 42.344 108.752 44.408C108.752 45.56 108.632 46.76 108.392 48.008C108.152 49.208 107.744 50.36 107.168 51.464C106.592 52.568 105.8 53.552 104.792 54.416C103.832 55.232 102.608 55.832 101.12 56.216C103.904 57.08 105.872 58.52 107.024 60.536C108.176 62.504 108.752 64.856 108.752 67.592C108.752 69.8 108.392 71.888 107.672 73.856C106.952 75.776 105.704 77.48 103.928 78.968C102.152 80.408 99.8 81.56 96.872 82.424C93.944 83.288 90.272 83.72 85.856 83.72ZM89.96 61.4C89.432 61.4 88.784 61.448 88.016 61.544C87.248 61.592 86.456 61.688 85.64 61.832L84.848 73.568C86.576 74.096 88.136 74.36 89.528 74.36C91.016 74.36 92.216 74.144 93.128 73.712C94.04 73.28 94.736 72.752 95.216 72.128C95.744 71.456 96.08 70.736 96.224 69.968C96.416 69.152 96.512 68.408 96.512 67.736C96.512 65.96 96.008 64.472 95 63.272C94.04 62.024 92.36 61.4 89.96 61.4ZM86.936 41.6C86.84 42.848 86.744 44.312 86.648 45.992C86.6 47.672 86.504 49.496 86.36 51.464C87.896 51.848 89.264 52.04 90.464 52.04C91.904 52.04 93.056 51.872 93.92 51.536C94.784 51.2 95.456 50.768 95.936 50.24C96.464 49.712 96.8 49.136 96.944 48.512C97.136 47.888 97.232 47.288 97.232 46.712C97.232 45.224 96.728 43.952 95.72 42.896C94.76 41.792 93.08 41.24 90.68 41.24C90.152 41.24 89.552 41.288 88.88 41.384C88.256 41.432 87.608 41.504 86.936 41.6ZM137.946 31.88C139.146 31.88 140.13 32.12 140.898 32.6C141.714 33.032 142.386 33.632 142.914 34.4C143.442 35.12 143.874 35.96 144.21 36.92C144.546 37.88 144.834 38.864 145.074 39.872C146.994 47.648 148.578 54.056 149.826 59.096C151.074 64.136 152.058 68.216 152.778 71.336C153.498 74.408 154.002 76.688 154.29 78.176C154.578 79.664 154.722 80.696 154.722 81.272C154.722 81.944 154.554 82.4 154.218 82.64C153.93 82.88 153.45 83 152.778 83H149.106C147.042 83 145.386 82.76 144.138 82.28C142.938 81.752 142.002 81.008 141.33 80.048C140.706 79.088 140.25 77.936 139.962 76.592C139.674 75.2 139.434 73.64 139.242 71.912H126.714L124.338 81.848C124.098 82.616 123.546 83 122.682 83H118.866C118.098 83 117.306 82.928 116.49 82.784C115.674 82.592 114.93 82.304 114.258 81.92C113.634 81.536 113.106 81.056 112.674 80.48C112.242 79.856 112.026 79.112 112.026 78.248C112.026 77.192 112.362 75.464 113.034 73.064C113.706 70.664 114.546 67.952 115.554 64.928C116.61 61.856 117.762 58.664 119.01 55.352C120.306 51.992 121.554 48.824 122.754 45.848C123.954 42.872 125.034 40.256 125.994 38C127.002 35.744 127.77 34.16 128.298 33.248C128.682 32.576 129.018 32.192 129.306 32.096C129.642 31.952 130.242 31.88 131.106 31.88H137.946ZM129.306 61.472H137.586L134.562 42.464L129.306 61.472ZM180.741 72.488C182.709 72.488 184.365 72.2 185.709 71.624C187.101 71.048 188.277 70.4 189.237 69.68C190.197 68.96 191.037 68.312 191.757 67.736C192.525 67.16 193.293 66.872 194.061 66.872C195.021 66.872 195.501 67.592 195.501 69.032C195.501 69.8 195.405 70.736 195.213 71.84C195.021 72.896 194.757 74.096 194.421 75.44C194.229 76.256 193.749 77.144 192.981 78.104C192.261 79.064 191.253 79.976 189.957 80.84C188.661 81.656 187.053 82.352 185.133 82.928C183.261 83.456 181.101 83.72 178.653 83.72C176.205 83.72 173.757 83.36 171.309 82.64C168.861 81.92 166.677 80.696 164.757 78.968C162.837 77.24 161.277 74.912 160.077 71.984C158.877 69.056 158.277 65.384 158.277 60.968C158.277 59.384 158.373 57.56 158.565 55.496C158.805 53.384 159.237 51.224 159.861 49.016C160.485 46.808 161.349 44.648 162.453 42.536C163.605 40.376 165.069 38.456 166.845 36.776C168.621 35.096 170.781 33.752 173.325 32.744C175.917 31.688 178.989 31.16 182.541 31.16C185.373 31.16 187.821 31.496 189.885 32.168C191.997 32.84 193.725 33.776 195.069 34.976C196.461 36.128 197.469 37.496 198.093 39.08C198.765 40.664 199.101 42.344 199.101 44.12C199.101 47.192 198.189 49.448 196.365 50.888C194.589 52.28 192.045 52.976 188.733 52.976C187.677 52.976 187.005 52.904 186.717 52.76C186.477 52.568 186.357 52.208 186.357 51.68C186.309 50.048 186.261 48.632 186.213 47.432C186.165 46.232 185.997 45.248 185.709 44.48C185.421 43.664 184.965 43.088 184.341 42.752C183.765 42.368 182.949 42.176 181.893 42.176C180.357 42.176 179.037 42.512 177.933 43.184C176.877 43.808 175.965 44.648 175.197 45.704C174.477 46.712 173.877 47.864 173.397 49.16C172.965 50.456 172.605 51.776 172.317 53.12C172.077 54.464 171.909 55.76 171.813 57.008C171.765 58.256 171.741 59.336 171.741 60.248C171.741 64.664 172.461 67.808 173.901 69.68C175.389 71.552 177.669 72.488 180.741 72.488ZM228.715 31.088C232.219 31.088 235.219 31.592 237.715 32.6C240.211 33.56 242.251 35 243.835 36.92C245.419 38.792 246.571 41.096 247.291 43.832C248.011 46.52 248.371 49.592 248.371 53.048C248.371 54.968 248.227 57.056 247.939 59.312C247.699 61.568 247.219 63.848 246.499 66.152C245.827 68.408 244.891 70.592 243.691 72.704C242.491 74.816 240.931 76.688 239.011 78.32C237.139 79.952 234.883 81.272 232.243 82.28C229.603 83.24 226.483 83.72 222.883 83.72C218.899 83.72 215.587 83.12 212.947 81.92C210.355 80.72 208.267 79.112 206.683 77.096C205.147 75.032 204.043 72.608 203.371 69.824C202.747 67.04 202.435 64.064 202.435 60.896C202.435 57.152 202.867 53.504 203.731 49.952C204.595 46.352 206.035 43.16 208.051 40.376C210.115 37.592 212.827 35.36 216.187 33.68C219.547 31.952 223.723 31.088 228.715 31.088ZM227.203 42.248C225.523 42.248 224.059 42.56 222.811 43.184C221.611 43.76 220.579 44.552 219.715 45.56C218.899 46.568 218.227 47.696 217.699 48.944C217.219 50.192 216.835 51.488 216.547 52.832C216.259 54.128 216.067 55.4 215.971 56.648C215.875 57.848 215.827 58.928 215.827 59.888C215.827 64.256 216.547 67.448 217.987 69.464C219.475 71.48 221.563 72.488 224.251 72.488C226.459 72.488 228.259 71.792 229.651 70.4C231.043 68.96 232.123 67.256 232.891 65.288C233.707 63.272 234.259 61.208 234.547 59.096C234.835 56.936 234.979 55.112 234.979 53.624C234.979 50.12 234.379 47.36 233.179 45.344C231.979 43.28 229.987 42.248 227.203 42.248ZM124.21 158.488C126.178 158.488 127.834 158.2 129.178 157.624C130.57 157.048 131.746 156.4 132.706 155.68C133.666 154.96 134.506 154.312 135.226 153.736C135.994 153.16 136.762 152.872 137.53 152.872C138.49 152.872 138.97 153.592 138.97 155.032C138.97 155.8 138.874 156.736 138.682 157.84C138.49 158.896 138.226 160.096 137.89 161.44C137.698 162.256 137.218 163.144 136.45 164.104C135.73 165.064 134.722 165.976 133.426 166.84C132.13 167.656 130.522 168.352 128.602 168.928C126.73 169.456 124.57 169.72 122.122 169.72C119.674 169.72 117.226 169.36 114.778 168.64C112.33 167.92 110.146 166.696 108.226 164.968C106.306 163.24 104.746 160.912 103.546 157.984C102.346 155.056 101.746 151.384 101.746 146.968C101.746 145.384 101.842 143.56 102.034 141.496C102.274 139.384 102.706 137.224 103.33 135.016C103.954 132.808 104.818 130.648 105.922 128.536C107.074 126.376 108.538 124.456 110.314 122.776C112.09 121.096 114.25 119.752 116.794 118.744C119.386 117.688 122.458 117.16 126.01 117.16C128.842 117.16 131.29 117.496 133.354 118.168C135.466 118.84 137.194 119.776 138.538 120.976C139.93 122.128 140.938 123.496 141.562 125.08C142.234 126.664 142.57 128.344 142.57 130.12C142.57 133.192 141.658 135.448 139.834 136.888C138.058 138.28 135.514 138.976 132.202 138.976C131.146 138.976 130.474 138.904 130.186 138.76C129.946 138.568 129.826 138.208 129.826 137.68C129.778 136.048 129.73 134.632 129.682 133.432C129.634 132.232 129.466 131.248 129.178 130.48C128.89 129.664 128.434 129.088 127.81 128.752C127.234 128.368 126.418 128.176 125.362 128.176C123.826 128.176 122.506 128.512 121.402 129.184C120.346 129.808 119.434 130.648 118.666 131.704C117.946 132.712 117.346 133.864 116.866 135.16C116.434 136.456 116.074 137.776 115.786 139.12C115.546 140.464 115.378 141.76 115.282 143.008C115.234 144.256 115.21 145.336 115.21 146.248C115.21 150.664 115.93 153.808 117.37 155.68C118.858 157.552 121.138 158.488 124.21 158.488ZM180.455 169C177.767 169 175.847 168.472 174.695 167.416C173.543 166.36 172.967 164.848 172.967 162.88C172.967 161.824 173.063 159.952 173.255 157.264C173.447 154.576 173.663 151.552 173.903 148.192H161.087L159.647 167.92C159.599 168.304 159.503 168.592 159.359 168.784C159.215 168.928 158.927 169 158.495 169H154.535C151.847 169 149.927 168.472 148.775 167.416C147.623 166.36 147.047 164.848 147.047 162.88C147.047 161.92 147.119 160.288 147.263 157.984C147.407 155.632 147.599 152.968 147.839 149.992C148.079 147.016 148.319 143.872 148.559 140.56C148.799 137.248 149.039 134.128 149.279 131.2C149.519 128.272 149.711 125.704 149.855 123.496C149.999 121.288 150.071 119.776 150.071 118.96C150.071 118.24 150.455 117.88 151.223 117.88H155.183C158.111 117.88 160.079 118.504 161.087 119.752C162.095 121 162.599 122.848 162.599 125.296C162.599 125.68 162.527 127.048 162.383 129.4C162.239 131.704 162.047 134.488 161.807 137.752H174.695C174.839 135.64 174.983 133.576 175.127 131.56C175.319 129.544 175.463 127.696 175.559 126.016C175.703 124.336 175.799 122.896 175.847 121.696C175.943 120.448 175.991 119.536 175.991 118.96C175.991 118.24 176.375 117.88 177.143 117.88H181.103C184.031 117.88 185.999 118.504 187.007 119.752C188.015 121 188.519 122.848 188.519 125.296C188.519 125.536 188.471 126.304 188.375 127.6C188.327 128.896 188.231 130.528 188.087 132.496C187.943 134.464 187.775 136.672 187.583 139.12C187.439 141.52 187.271 143.992 187.079 146.536C186.935 149.08 186.767 151.576 186.575 154.024C186.431 156.424 186.287 158.608 186.143 160.576C185.999 162.544 185.879 164.2 185.783 165.544C185.687 166.84 185.615 167.632 185.567 167.92C185.519 168.304 185.423 168.592 185.279 168.784C185.135 168.928 184.847 169 184.415 169H180.455ZM203.051 169C200.363 169 198.443 168.472 197.291 167.416C196.139 166.36 195.563 164.848 195.563 162.88C195.563 161.92 195.635 160.288 195.779 157.984C195.923 155.632 196.115 152.968 196.355 149.992C196.595 147.016 196.835 143.872 197.075 140.56C197.315 137.248 197.555 134.128 197.795 131.2C198.035 128.272 198.227 125.704 198.371 123.496C198.515 121.288 198.587 119.776 198.587 118.96C198.587 118.24 198.971 117.88 199.739 117.88H203.699C206.627 117.88 208.595 118.504 209.603 119.752C210.611 121 211.115 122.848 211.115 125.296C211.115 125.536 211.067 126.304 210.971 127.6C210.923 128.896 210.827 130.528 210.683 132.496C210.539 134.464 210.371 136.672 210.179 139.12C210.035 141.52 209.867 143.992 209.675 146.536C209.531 149.08 209.363 151.576 209.171 154.024C209.027 156.424 208.883 158.608 208.739 160.576C208.595 162.544 208.475 164.2 208.379 165.544C208.283 166.84 208.211 167.632 208.163 167.92C208.115 168.304 208.019 168.592 207.875 168.784C207.731 168.928 207.443 169 207.011 169H203.051ZM250.459 169C248.491 169 247.027 168.712 246.067 168.136C245.107 167.56 244.411 166.84 243.979 165.976C241.483 160.84 239.131 155.92 236.923 151.216C234.763 146.512 232.555 141.76 230.299 136.96C230.347 142.144 230.419 147.304 230.515 152.44C230.611 157.576 230.707 162.736 230.803 167.92C230.803 168.64 230.419 169 229.651 169H225.691C222.955 169 221.011 168.472 219.859 167.416C218.755 166.312 218.203 164.704 218.203 162.592C218.203 162.016 218.227 161.056 218.275 159.712C218.371 158.32 218.491 156.688 218.635 154.816C218.779 152.944 218.923 150.904 219.067 148.696C219.259 146.44 219.451 144.16 219.643 141.856C219.931 138.208 220.171 135.184 220.363 132.784C220.555 130.384 220.699 128.368 220.795 126.736C220.939 125.056 221.035 123.64 221.083 122.488C221.131 121.288 221.179 120.112 221.227 118.96C221.227 118.24 221.611 117.88 222.379 117.88H228.139C229.723 117.88 231.019 118.072 232.027 118.456C233.035 118.792 233.851 119.272 234.475 119.896C235.147 120.52 235.675 121.24 236.059 122.056C236.443 122.824 236.803 123.64 237.139 124.504C238.291 127.48 239.299 130.048 240.163 132.208C241.075 134.368 241.867 136.264 242.539 137.896C243.211 139.528 243.787 140.944 244.267 142.144C244.795 143.344 245.275 144.448 245.707 145.456C246.139 146.464 246.571 147.448 247.003 148.408C247.435 149.32 247.891 150.328 248.371 151.432C248.371 148.6 248.347 145.696 248.299 142.72C248.299 139.696 248.275 136.768 248.227 133.936C248.227 131.056 248.203 128.296 248.155 125.656C248.155 123.016 248.155 120.64 248.155 118.528C248.155 118.096 248.563 117.88 249.379 117.88H253.339C254.923 117.88 256.171 118.048 257.083 118.384C258.043 118.672 258.787 119.128 259.315 119.752C259.843 120.328 260.179 121.048 260.323 121.912C260.515 122.776 260.611 123.76 260.611 124.864C260.611 126.064 260.539 127.912 260.395 130.408C260.251 132.856 260.083 135.616 259.891 138.688C259.699 141.76 259.483 144.952 259.243 148.264C259.003 151.528 258.763 154.552 258.523 157.336C258.331 160.12 258.139 162.496 257.947 164.464C257.803 166.384 257.707 167.512 257.659 167.848C257.659 168.232 257.515 168.52 257.227 168.712C256.987 168.904 256.699 169 256.363 169H250.459ZM290.454 117.88C291.654 117.88 292.638 118.12 293.406 118.6C294.222 119.032 294.894 119.632 295.422 120.4C295.95 121.12 296.382 121.96 296.718 122.92C297.054 123.88 297.342 124.864 297.582 125.872C299.502 133.648 301.086 140.056 302.334 145.096C303.582 150.136 304.566 154.216 305.286 157.336C306.006 160.408 306.51 162.688 306.798 164.176C307.086 165.664 307.23 166.696 307.23 167.272C307.23 167.944 307.062 168.4 306.726 168.64C306.438 168.88 305.958 169 305.286 169H301.614C299.55 169 297.894 168.76 296.646 168.28C295.446 167.752 294.51 167.008 293.838 166.048C293.214 165.088 292.758 163.936 292.47 162.592C292.182 161.2 291.942 159.64 291.75 157.912H279.222L276.846 167.848C276.606 168.616 276.054 169 275.19 169H271.374C270.606 169 269.814 168.928 268.998 168.784C268.182 168.592 267.438 168.304 266.766 167.92C266.142 167.536 265.614 167.056 265.182 166.48C264.75 165.856 264.534 165.112 264.534 164.248C264.534 163.192 264.87 161.464 265.542 159.064C266.214 156.664 267.054 153.952 268.062 150.928C269.118 147.856 270.27 144.664 271.518 141.352C272.814 137.992 274.062 134.824 275.262 131.848C276.462 128.872 277.542 126.256 278.502 124C279.51 121.744 280.278 120.16 280.806 119.248C281.19 118.576 281.526 118.192 281.814 118.096C282.15 117.952 282.75 117.88 283.614 117.88H290.454ZM281.814 147.472H290.094L287.07 128.464L281.814 147.472Z" fill="url(#paint2_linear_2_8)"/>
<path d="M256.453 230.231L294.047 64.2694" stroke="white" stroke-width="13"/>
</g>
<defs>
<filter id="filter0_d_2_8" x="0.859455" y="0.872307" width="364.519" height="238.794" filterUnits="userSpaceOnUse" color-interpolation-filters="sRGB">
<feFlood flood-opacity="0" result="BackgroundImageFix"/>
<feColorMatrix in="SourceAlpha" type="matrix" values="0 0 0 0 0 0 0 0 0 0 0 0 0 0 0 0 0 0 127 0" result="hardAlpha"/>
<feOffset dy="4"/>
<feGaussianBlur stdDeviation="2"/>
<feComposite in2="hardAlpha" operator="out"/>
<feColorMatrix type="matrix" values="0 0 0 0 0 0 0 0 0 0 0 0 0 0 0 0 0 0 0.25 0"/>
<feBlend mode="normal" in2="BackgroundImageFix" result="effect1_dropShadow_2_8"/>
<feBlend mode="normal" in="SourceGraphic" in2="effect1_dropShadow_2_8" result="shape"/>
</filter>
<linearGradient id="paint0_linear_2_8" x1="317.25" y1="83" x2="317.25" y2="222.5" gradientUnits="userSpaceOnUse">
<stop stop-color="#6A31E2"/>
<stop offset="0.5625" stop-color="#370999" stop-opacity="0.598958"/>
<stop offset="1" stop-color="#40227D"/>
</linearGradient>
<linearGradient id="paint1_linear_2_8" x1="51.5" y1="1" x2="51.5" y2="109.5" gradientUnits="userSpaceOnUse">
<stop stop-color="#6836D2"/>
<stop offset="1" stop-color="#4E308D"/>
</linearGradient>
<linearGradient id="paint2_linear_2_8" x1="213" y1="11" x2="213" y2="277" gradientUnits="userSpaceOnUse">
<stop stop-color="white"/>
<stop offset="1" stop-color="white"/>
</linearGradient>
</defs>
</svg>
