<svg width="187" height="160" viewBox="0 0 187 160" fill="none" xmlns="http://www.w3.org/2000/svg">
<g filter="url(#filter0_f_4_22)">
<ellipse cx="82.0788" cy="131.294" rx="28.1759" ry="9.98987" fill="url(#paint0_linear_4_22)"/>
</g>
<g filter="url(#filter1_f_4_22)">
<ellipse cx="92.0233" cy="79.7466" rx="48.3347" ry="46.6132" fill="url(#paint1_linear_4_22)" fill-opacity="0.6"/>
</g>
<ellipse cx="92.0233" cy="79.7465" rx="54.6945" ry="52.7465" fill="url(#paint2_linear_4_22)"/>
<mask id="mask0_4_22" style="mask-type:alpha" maskUnits="userSpaceOnUse" x="37" y="27" width="110" height="106">
<ellipse cx="92.0233" cy="79.7465" rx="54.6945" ry="52.7465" fill="url(#paint3_linear_4_22)"/>
</mask>
<g mask="url(#mask0_4_22)">
<g filter="url(#filter2_f_4_22)">
<path d="M98.2282 37.1872C76.3321 34.9657 47.1865 49.9998 47.1865 49.9998C48.7765 49.1173 58.2337 23.5903 98.2282 28.2265C138.223 32.8627 144.174 60.4264 142.584 63.1864C142.584 63.1864 121.464 39.5447 98.2282 37.1872Z" fill="white" fill-opacity="0.9"/>
</g>
</g>
<mask id="mask1_4_22" style="mask-type:alpha" maskUnits="userSpaceOnUse" x="37" y="27" width="110" height="106">
<ellipse cx="92.0233" cy="79.7465" rx="54.6945" ry="52.7465" fill="url(#paint4_linear_4_22)"/>
</mask>
<g mask="url(#mask1_4_22)">
<g filter="url(#filter3_f_4_22)">
<path d="M93.4733 117.85C71.4596 117.483 39.2069 88.4081 39.2069 88.4081C37.069 89.3945 51.5652 130.531 91.8476 130.627C132.13 130.723 149.01 86.3466 145.855 86.1143C145.855 86.1143 116.834 118.239 93.4733 117.85Z" fill="#FF37C4"/>
</g>
</g>
<mask id="mask2_4_22" style="mask-type:alpha" maskUnits="userSpaceOnUse" x="37" y="27" width="110" height="106">
<ellipse cx="92.0233" cy="79.7465" rx="54.6945" ry="52.7465" fill="url(#paint5_linear_4_22)"/>
</mask>
<g mask="url(#mask2_4_22)">
<g filter="url(#filter4_f_4_22)">
<path d="M108.521 117.92C105.302 129.446 89.8034 132.038 79.8696 129.815C69.9357 127.592 55.7857 119.301 59.5882 108.266C63.3907 97.2313 74.9129 108.056 84.8467 110.279C94.7805 112.501 111.741 106.395 108.521 117.92Z" fill="#FF65D2"/>
</g>
<g filter="url(#filter5_f_4_22)">
<path d="M94.0778 121.01C93.3175 124.23 87.0662 127.434 80.8936 126.053C74.721 124.672 70.9644 119.229 71.7248 116.008C72.4851 112.787 77.4665 113.391 83.6391 114.772C89.8118 116.154 94.8382 117.789 94.0778 121.01Z" fill="#FF93DF"/>
<path d="M93.7037 120.926C93.5368 121.633 93.0585 122.373 92.3049 123.072C91.5541 123.768 90.5487 124.404 89.368 124.905C87.0056 125.907 83.982 126.351 80.9818 125.679C77.9832 125.008 75.5723 123.35 74.006 121.474C72.4255 119.58 71.7584 117.534 72.0989 116.092C72.2634 115.395 72.6466 114.918 73.2243 114.596C73.8185 114.263 74.6355 114.086 75.6624 114.047C77.7185 113.97 80.4621 114.455 83.5509 115.146C86.6389 115.837 89.395 116.583 91.2804 117.543C92.2228 118.022 92.9135 118.539 93.3244 119.099C93.724 119.643 93.8664 120.237 93.7037 120.926Z" stroke="#FF1DA8" stroke-width="0.767442"/>
</g>
</g>
<mask id="mask3_4_22" style="mask-type:alpha" maskUnits="userSpaceOnUse" x="37" y="27" width="110" height="106">
<ellipse cx="92.0233" cy="79.7465" rx="54.6945" ry="52.7465" fill="url(#paint6_linear_4_22)"/>
</mask>
<g mask="url(#mask3_4_22)">
<g filter="url(#filter6_f_4_22)">
<path d="M120.245 43.0639C120.686 37.1167 108.972 32.6284 100.448 31.5244C91.924 30.4205 78.4419 31.1871 78.5961 37.0346C78.7502 42.8822 90.7938 40.3989 99.3177 41.5028C107.842 42.6068 119.805 49.0111 120.245 43.0639Z" fill="white"/>
</g>
<g filter="url(#filter7_f_4_22)">
<path d="M111.211 38.229C111.486 36.2944 106.414 32.9706 99.9731 32.1454C93.5325 31.3202 88.1627 33.306 87.8877 35.2406C87.6128 37.1752 92.6496 38.1172 99.0902 38.9424C105.531 39.7676 110.936 40.1636 111.211 38.229Z" fill="white"/>
</g>
</g>
<g filter="url(#filter8_f_4_22)">
<path d="M57.0442 42.9236C66.1518 34.1958 78.4673 28.84 92.0233 28.84C105.579 28.84 117.895 34.1958 127.002 42.9236M57.0442 117.183C66.1518 125.911 78.4673 131.266 92.0233 131.266C105.579 131.266 117.895 125.911 127.002 117.183" stroke="url(#paint7_linear_4_22)" stroke-width="2.30233"/>
</g>
<g filter="url(#filter9_f_4_22)">
<path d="M43.6886 69.3199L54.8183 47.8533C87.5962 61.8237 107.007 64.8198 143.538 61.0399V84.3465C103.534 86.2483 81.65 83.1066 43.6886 69.3199Z" fill="#250348" fill-opacity="0.8"/>
</g>
<defs>
<filter id="filter0_f_4_22" x="35.4843" y="102.886" width="93.1891" height="56.817" filterUnits="userSpaceOnUse" color-interpolation-filters="sRGB">
<feFlood flood-opacity="0" result="BackgroundImageFix"/>
<feBlend mode="normal" in="SourceGraphic" in2="BackgroundImageFix" result="shape"/>
<feGaussianBlur stdDeviation="9.2093" result="effect1_foregroundBlur_4_22"/>
</filter>
<filter id="filter1_f_4_22" x="11.4561" y="0.900867" width="161.134" height="157.692" filterUnits="userSpaceOnUse" color-interpolation-filters="sRGB">
<feFlood flood-opacity="0" result="BackgroundImageFix"/>
<feBlend mode="normal" in="SourceGraphic" in2="BackgroundImageFix" result="shape"/>
<feGaussianBlur stdDeviation="16.1163" result="effect1_foregroundBlur_4_22"/>
</filter>
<filter id="filter2_f_4_22" x="17.2563" y="-2.2661" width="155.485" height="95.3827" filterUnits="userSpaceOnUse" color-interpolation-filters="sRGB">
<feFlood flood-opacity="0" result="BackgroundImageFix"/>
<feBlend mode="normal" in="SourceGraphic" in2="BackgroundImageFix" result="shape"/>
<feGaussianBlur stdDeviation="14.9651" result="effect1_foregroundBlur_4_22"/>
</filter>
<filter id="filter3_f_4_22" x="9.07293" y="56.1841" width="167.084" height="104.373" filterUnits="userSpaceOnUse" color-interpolation-filters="sRGB">
<feFlood flood-opacity="0" result="BackgroundImageFix"/>
<feBlend mode="normal" in="SourceGraphic" in2="BackgroundImageFix" result="shape"/>
<feGaussianBlur stdDeviation="14.9651" result="effect1_foregroundBlur_4_22"/>
</filter>
<filter id="filter4_f_4_22" x="38.2339" y="82.6672" width="91.4086" height="68.5941" filterUnits="userSpaceOnUse" color-interpolation-filters="sRGB">
<feFlood flood-opacity="0" result="BackgroundImageFix"/>
<feBlend mode="normal" in="SourceGraphic" in2="BackgroundImageFix" result="shape"/>
<feGaussianBlur stdDeviation="10.3605" result="effect1_foregroundBlur_4_22"/>
</filter>
<filter id="filter5_f_4_22" x="47.8368" y="89.8656" width="70.1081" height="60.308" filterUnits="userSpaceOnUse" color-interpolation-filters="sRGB">
<feFlood flood-opacity="0" result="BackgroundImageFix"/>
<feBlend mode="normal" in="SourceGraphic" in2="BackgroundImageFix" result="shape"/>
<feGaussianBlur stdDeviation="11.8953" result="effect1_foregroundBlur_4_22"/>
</filter>
<filter id="filter6_f_4_22" x="60.1762" y="12.6785" width="78.4997" height="51.2999" filterUnits="userSpaceOnUse" color-interpolation-filters="sRGB">
<feFlood flood-opacity="0" result="BackgroundImageFix"/>
<feBlend mode="normal" in="SourceGraphic" in2="BackgroundImageFix" result="shape"/>
<feGaussianBlur stdDeviation="9.2093" result="effect1_foregroundBlur_4_22"/>
</filter>
<filter id="filter7_f_4_22" x="70.2258" y="14.3023" width="58.6473" height="42.9729" filterUnits="userSpaceOnUse" color-interpolation-filters="sRGB">
<feFlood flood-opacity="0" result="BackgroundImageFix"/>
<feBlend mode="normal" in="SourceGraphic" in2="BackgroundImageFix" result="shape"/>
<feGaussianBlur stdDeviation="8.82558" result="effect1_foregroundBlur_4_22"/>
</filter>
<filter id="filter8_f_4_22" x="42.4338" y="13.8749" width="99.1789" height="132.357" filterUnits="userSpaceOnUse" color-interpolation-filters="sRGB">
<feFlood flood-opacity="0" result="BackgroundImageFix"/>
<feBlend mode="normal" in="SourceGraphic" in2="BackgroundImageFix" result="shape"/>
<feGaussianBlur stdDeviation="6.90698" result="effect1_foregroundBlur_4_22"/>
</filter>
<filter id="filter9_f_4_22" x="0.711887" y="4.87656" width="185.803" height="122.952" filterUnits="userSpaceOnUse" color-interpolation-filters="sRGB">
<feFlood flood-opacity="0" result="BackgroundImageFix"/>
<feBlend mode="normal" in="SourceGraphic" in2="BackgroundImageFix" result="shape"/>
<feGaussianBlur stdDeviation="21.4884" result="effect1_foregroundBlur_4_22"/>
</filter>
<linearGradient id="paint0_linear_4_22" x1="91.9404" y1="121.304" x2="55.7103" y2="138.69" gradientUnits="userSpaceOnUse">
<stop stop-color="#A83591"/>
<stop offset="1" stop-color="#A83591" stop-opacity="0"/>
</linearGradient>
<linearGradient id="paint1_linear_4_22" x1="106.015" y1="33.1334" x2="78.6595" y2="131.488" gradientUnits="userSpaceOnUse">
<stop stop-color="#260347"/>
<stop offset="1" stop-color="#FF4DC3"/>
</linearGradient>
<linearGradient id="paint2_linear_4_22" x1="102.199" y1="27" x2="92.7295" y2="132.556" gradientUnits="userSpaceOnUse">
<stop offset="0.305982" stop-color="#270349"/>
<stop offset="1" stop-color="#E154B2"/>
</linearGradient>
<linearGradient id="paint3_linear_4_22" x1="92.0233" y1="27" x2="92.0233" y2="132.493" gradientUnits="userSpaceOnUse">
<stop stop-color="#270349"/>
<stop offset="1" stop-color="#E154B2"/>
</linearGradient>
<linearGradient id="paint4_linear_4_22" x1="92.0233" y1="27" x2="92.0233" y2="132.493" gradientUnits="userSpaceOnUse">
<stop stop-color="#270349"/>
<stop offset="1" stop-color="#E154B2"/>
</linearGradient>
<linearGradient id="paint5_linear_4_22" x1="102.199" y1="27" x2="92.7295" y2="132.556" gradientUnits="userSpaceOnUse">
<stop offset="0.305982" stop-color="#270349"/>
<stop offset="1" stop-color="#E154B2"/>
</linearGradient>
<linearGradient id="paint6_linear_4_22" x1="102.199" y1="27" x2="92.7295" y2="132.556" gradientUnits="userSpaceOnUse">
<stop offset="0.305982" stop-color="#270349"/>
<stop offset="1" stop-color="#E154B2"/>
</linearGradient>
<linearGradient id="paint7_linear_4_22" x1="92.0233" y1="28.84" x2="92.0233" y2="131.266" gradientUnits="userSpaceOnUse">
<stop stop-color="white"/>
<stop offset="1" stop-color="#FF52CA"/>
</linearGradient>
</defs>
</svg>
